<svg width="351" height="565" viewBox="0 0 351 565" fill="none" xmlns="http://www.w3.org/2000/svg">
<path fill-rule="evenodd" clip-rule="evenodd" d="M-214.027 164.398C-209.033 140.681 -197.131 120.528 -176.924 102.471C-162.486 89.5689 -143.801 77.7372 -120.379 66.4538C-105.125 59.1063 -91.4377 52.2173 -79.1181 45.9706C-81.9999 47.5419 -84.9544 49.1592 -87.9904 50.8211C-100.736 57.7986 -115.184 65.7068 -131.666 74.2523C-241.364 131.126 -221.777 195.412 -186.219 312.114L-186.217 312.12C-184.43 317.983 -182.603 323.98 -180.749 330.117C-160.03 398.705 -145.905 436.297 -121.665 464.421C-97.044 492.99 -62.8346 511.386 4.55603 532.299C71.9638 553.218 109.57 557.102 143.308 546.627C144.346 546.305 145.379 545.969 146.408 545.619C137.27 550.381 128.354 554.008 119.219 556.655C83.4069 567.032 44.8404 562.578 -23.0821 540.225C-91.0046 517.873 -124.679 498.552 -147.328 468.937C-169.662 439.735 -180.662 400.699 -195.52 329.474C-196.855 323.073 -198.176 316.818 -199.468 310.703L-199.47 310.695C-212.162 250.607 -222.187 203.147 -214.027 164.398ZM164.551 534.903C163.035 535.896 161.532 536.859 160.04 537.791C154.312 540.567 148.577 542.842 142.699 544.666C109.405 555.003 72.1285 551.121 5.16518 530.339C-61.816 509.553 -95.7688 491.325 -120.109 463.083C-144.108 435.237 -158.15 397.83 -178.784 329.523C-180.55 323.676 -182.293 317.955 -183.999 312.356L-184.253 311.522L-184.255 311.517C-201.81 253.899 -215.676 208.389 -211.367 171.071C-208.483 146.082 -197.294 125.104 -176.23 106.281C-164.315 95.6341 -149.238 85.6757 -130.721 76.0757C-116.889 68.9038 -104.493 62.1827 -93.3323 56.0839C-95.8543 57.5699 -98.4372 59.0976 -101.089 60.6659L-101.091 60.6673L-101.139 60.6957L-101.14 60.6962C-112.687 67.5261 -125.773 75.2659 -140.743 83.6369C-240.61 139.48 -216.077 201.077 -171.542 312.899L-171.538 312.91L-171.525 312.941L-171.524 312.944C-169.291 318.552 -167.007 324.287 -164.684 330.156C-138.69 395.854 -121.795 431.831 -96.0892 458.6C-69.979 485.791 -35.6126 503.114 30.7072 522.515C96.9449 541.892 133.255 545.257 164.551 534.903ZM178.626 525.085C176.314 526.787 174.039 528.422 171.795 529.992C169.251 531.064 166.679 532.031 164.068 532.9C133.574 543.041 96.3442 539.577 31.2845 520.545C-34.6541 501.255 -68.7744 484.081 -94.6078 457.179C-120.077 430.656 -136.881 394.843 -162.776 329.4C-164.904 324.023 -167 318.758 -169.053 313.601L-169.055 313.596L-169.63 312.15C-191.614 256.952 -208.978 213.355 -208.222 177.45C-207.432 139.85 -186.313 111.468 -139.742 85.4288C-127.218 78.4253 -116.016 71.8665 -105.929 65.9117C-108.145 67.3265 -110.412 68.7797 -112.738 70.2704L-112.8 70.31C-123.221 76.9889 -135.03 84.5572 -148.582 92.7511C-239.142 147.51 -210.118 206.474 -157.429 313.515L-157.425 313.524C-154.779 318.898 -152.073 324.396 -149.318 330.022C-118.539 392.887 -99.1422 427.285 -72.1566 452.738C-45.0964 478.261 -9.4917 495.112 54.835 512.841C115.982 529.694 150.604 533.237 178.626 525.085ZM191.558 515.18C188.893 517.293 186.282 519.323 183.719 521.272C183.626 521.305 183.534 521.339 183.441 521.372C155.21 531.427 119.305 528.481 55.38 510.862C-9.42284 493.002 -43.6075 476.843 -70.7471 451.245C-97.5042 426.008 -116.807 391.757 -147.475 329.118C-150.042 323.877 -152.566 318.747 -155.038 313.723L-155.583 312.617L-155.586 312.611C-181.587 259.788 -202.125 218.064 -204.64 183.548C-206.612 156.507 -197.225 134.317 -174.683 114.173C-167.129 107.424 -158.094 100.902 -147.52 94.5081C-136.221 87.6765 -126.138 81.2828 -117.059 75.4751C-118.998 76.8219 -120.981 78.204 -123.013 79.6208L-123.013 79.621L-123.014 79.6212L-123.014 79.6214C-132.389 86.1573 -143.017 93.5656 -155.257 101.594C-237.015 155.212 -203.936 211.594 -143.889 313.943L-143.881 313.955L-143.762 314.158C-140.784 319.234 -137.74 324.423 -134.638 329.733C-99.5417 389.825 -77.8947 422.679 -49.8008 446.855C-21.632 471.097 13.9293 486.921 77.0375 503.297C133.278 517.889 166.18 521.481 191.558 515.18ZM203.943 505.103C201.119 507.454 198.358 509.72 195.653 511.903C170.171 519.66 136.128 516.507 77.5519 501.309C13.9622 484.809 -20.1909 469.629 -48.4623 445.299C-70.6709 426.188 -88.964 403.865 -132.866 328.697C-136.009 323.316 -139.094 318.057 -142.11 312.916C-171.742 262.411 -195.146 222.519 -200.664 189.369C-206.429 154.738 -192.075 128.198 -154.132 103.31C-143.972 96.6466 -134.927 90.4136 -126.787 84.7506C-128.487 86.0403 -130.224 87.3629 -132.003 88.718L-132.019 88.7301C-140.391 95.1047 -149.879 102.329 -160.853 110.165C-234.285 162.602 -197.562 216.455 -130.895 314.221L-130.887 314.232L-130.673 314.546L-130.67 314.551L-130.659 314.568C-127.385 319.369 -124.038 324.277 -120.629 329.297C-81.6516 386.682 -57.992 418.028 -28.957 440.968C0.159603 463.969 35.5873 478.807 97.4044 493.891C149.411 506.582 180.657 510.067 203.943 505.103ZM246.225 468.224C244.451 469.818 242.648 471.433 240.815 473.071C228.705 483.892 217.702 493.538 207.522 502.106C184.191 508.227 151.928 505.082 97.8908 491.897C35.5882 476.694 1.55382 462.454 -27.6838 439.356C-50.6511 421.213 -70.1628 399.943 -118.931 328.144C-122.344 323.117 -125.695 318.203 -128.973 313.396L-128.976 313.391L-128.994 313.365L-128.995 313.363L-128.999 313.357L-129.191 313.076C-162.086 264.837 -188.068 226.734 -196.337 194.922C-203.761 166.36 -196.42 143.403 -172.563 122.084C-168.699 118.631 -164.399 115.219 -159.66 111.836C-148.695 104.006 -139.218 96.7911 -130.853 90.4222L-130.759 90.3506L-130.759 90.3503C-81.9978 53.2229 -65.5715 40.7155 35.376 65.3471C98.752 80.8111 134.319 91.6106 165.03 111.157C196.194 130.99 221.983 159.274 260.184 215.517C297.865 270.995 313.218 303.587 314.939 331.758C316.653 359.809 305.311 384.553 280.847 426.174C279.939 427.719 279.043 429.236 278.158 430.726C277.202 432.123 276.23 433.538 275.241 434.973C274.154 436.55 273.082 438.099 272.023 439.621C270.873 441.081 269.703 442.561 268.513 444.062C267.212 445.702 265.93 447.313 264.665 448.895C263.329 450.391 261.97 451.907 260.588 453.444C259.053 455.153 257.54 456.83 256.049 458.476C254.52 460.003 252.966 461.55 251.386 463.117C249.64 464.85 247.92 466.552 246.225 468.224ZM268.193 450.945C306.093 415.648 327.587 390.763 339.391 362.393C353.893 327.543 353.82 288.392 339.122 217.94C324.426 147.487 308.839 111.573 281.614 85.4264C254.814 59.6892 217.062 44.2884 147.649 21.4449C36.6027 -15.1014 8.8979 -1.03169 -73.339 40.7345L-73.3922 40.7616C-87.3809 47.8654 -103.233 55.9154 -121.27 64.604C-241.334 122.441 -227.177 189.459 -201.478 311.122L-201.477 311.126C-200.185 317.24 -198.864 323.494 -197.53 329.893C-182.607 401.428 -171.533 440.666 -148.96 470.182C-126.029 500.166 -92.0866 519.678 -23.7245 542.176C44.6384 564.673 83.5346 569.132 119.79 558.626C133.558 554.637 146.808 548.468 161.019 539.599C167.649 536.38 174.265 532.501 181.072 527.886C187.117 524.725 193.088 520.931 199.176 516.43C204.663 513.333 210.022 509.633 215.429 505.254C220.421 502.208 225.235 498.579 230.033 494.292C230.113 494.22 230.193 494.148 230.273 494.076C233.427 491.952 236.456 489.573 239.39 486.95C249.696 477.741 258.84 465.543 268.193 450.945ZM280.373 436.55C310.439 404.841 327.404 381.729 335.711 355.672C346.441 322.014 342.841 284.38 322.431 216.817C302.027 149.27 283.889 114.922 255.509 90.0863C227.569 65.6357 190.085 51.2268 121.654 29.9891C45.5872 6.38228 10.1834 5.83855 -29.4515 21.451C23.2872 -2.46485 58.4605 -5.7469 147.008 23.3954C216.119 46.1405 253.678 61.4454 280.192 86.9092C307.084 112.734 322.511 148.36 337.113 218.36C351.715 288.359 351.819 327.182 337.496 361.605C327.308 386.09 309.739 408.027 280.373 436.55ZM331.584 349.239C325.979 374.417 311.806 396.839 285.846 427.693C311.386 399.955 326.22 378.687 333.755 355.05C344.344 321.834 340.742 284.529 320.468 217.411C300.186 150.275 282.215 116.185 254.157 91.6323C226.495 67.4256 189.195 53.0991 121.045 31.9498C33.9872 4.93141 0.600199 8.35392 -47.4519 31.7039C-11.0544 16.4062 22.8773 16.6183 97.5635 38.4675C164.912 58.1695 202.052 71.6293 230.969 94.8328C260.335 118.4 280.771 151.214 306.368 215.91C331.978 280.633 338.811 316.768 331.584 349.239ZM290.459 418.904C312.461 389.025 323.972 367.34 327.061 343.092C331.046 311.805 321.254 277.144 290.928 215.208C260.622 153.308 238.129 121.989 207.932 99.6509C178.196 77.6538 141.47 65.1027 75.295 46.8652C2.04939 26.678 -30.4462 26.7806 -63.8108 41.7676C-20.1462 18.9884 11.5168 15.4341 96.9882 40.4376C164.071 60.0621 201.038 73.4467 229.684 96.4337C258.741 119.752 279.007 152.338 304.459 216.664C329.573 280.137 336.616 317.181 329.58 348.793C324.519 371.524 312.294 392.069 290.459 418.904ZM322.183 337.227C321.382 361.586 310.823 384.023 294.673 409.556C312.66 384.053 322.273 364.427 325.024 342.833C328.902 312.385 318.825 276.856 289.084 216.11C258.939 154.539 236.614 123.422 206.711 101.302C177.236 79.4979 140.674 67.0141 74.7495 48.8445C-9.00484 25.7608 -39.0159 29.4207 -78.5479 51.5982C-48.0498 36.9465 -16.9497 36.558 54.7565 55.1649C119.68 72.0105 155.929 83.6923 186.34 104.521C217.219 125.67 241.547 155.531 276.103 214.698C310.684 273.905 323.172 307.114 322.183 337.227ZM297.244 401.377C310.362 376.698 318.419 355.039 316.989 331.632C315.219 302.686 300.285 270.902 261.881 214.363C223.507 157.866 197.557 129.424 166.132 109.425C150.661 99.5788 133.168 91.5185 111.075 84.0582C90.2341 77.02 65.9356 70.6912 35.8624 63.353C-34.2925 46.2342 -64.0263 46.901 -91.8471 61.2393C-56.1616 39.6422 -27.7521 35.8754 54.2406 57.1508C118.928 73.936 155.021 85.5588 185.181 106.215C215.782 127.173 239.944 156.856 274.332 215.733C308.252 273.814 321.094 307.859 320.131 337.159C319.451 357.873 312.066 376.781 297.244 401.377Z" fill="url(#paint0_linear_302_1206)"/>
<defs>
<linearGradient id="paint0_linear_302_1206" x1="-160.682" y1="501.045" x2="22.4709" y2="-16.352" gradientUnits="userSpaceOnUse">
<stop stop-color="white"/>
<stop offset="0.33125" stop-color="#DAEEFF"/>
<stop offset="0.685417" stop-color="#FFC7E6"/>
<stop offset="1" stop-color="white"/>
</linearGradient>
</defs>
</svg>
