<svg width="497" height="320" viewBox="0 0 497 320" fill="none" xmlns="http://www.w3.org/2000/svg">
<path fill-rule="evenodd" clip-rule="evenodd" d="M28.9994 -229.518L44.2028 -237.944L150.289 -174.498L167.059 -164.381L174.43 -159.923L183.394 -154.49C192.678 -148.842 202.5 -142.758 212.075 -136.232C213.421 -135.315 214.763 -134.388 216.101 -133.451C221.573 -129.582 226.831 -125.492 231.84 -121.208C236.843 -116.929 241.602 -112.454 246.08 -107.812C254.966 -98.5706 263.551 -88.0284 272.324 -75.5819C277.704 -67.9497 283.047 -60.0037 288.271 -52.1646L292.164 -46.312C293.645 -44.084 295.126 -41.8551 296.61 -39.63L298.039 -37.4991C306.581 -24.8373 314.545 -14.3897 322.344 -5.61566C331.541 4.73322 341.537 13.2489 352.074 19.7159L353.183 20.3883C364.13 26.9339 376.773 31.9372 390.762 35.2587C403.022 38.1711 416.485 40.2707 433.13 41.8654L447.667 43.2466C457.298 44.1686 467.084 45.1504 476.607 46.3314C491.827 48.2179 505.281 50.8655 517.736 54.4223C530.229 58.0063 542.71 62.9311 554.829 69.0554C565.451 74.4646 575.843 80.3817 585.618 86.1009L589.315 88.2707C599.548 94.304 609.755 100.355 619.947 106.4L726.51 170.115L726.205 187.455L615.318 121.136C610.458 118.251 605.592 115.366 600.722 112.482L589.27 105.707L581.532 101.137L578.947 99.6205C567.429 92.8816 557.398 87.2656 546.824 82.1398C534.532 76.2191 521.672 71.6642 508.604 68.6012C495.976 65.6428 482.077 63.5595 466.109 62.2332C458.874 61.6317 451.493 61.1185 444.214 60.6358L430.416 59.7294L421.753 59.1451C419.71 59.0023 417.706 58.8468 415.737 58.6811C401.94 57.5155 389.935 55.7761 379.189 53.3911C365.658 50.3885 353.444 45.7338 342.87 39.5503L341.831 38.9343C331.142 32.5118 321.05 23.8394 311.833 13.1562C303.643 3.66342 295.44 -7.6507 286.751 -21.4332C284.838 -24.4664 282.934 -27.5113 281.032 -30.5593L274.508 -41.0254C270.807 -46.9507 267.038 -52.9471 263.266 -58.7804C254.638 -72.1254 246.338 -83.3178 237.893 -92.9977C229.133 -103.038 219.196 -112.182 208.359 -120.176C197.636 -128.029 186.323 -135.099 175.695 -141.57C167.582 -146.501 159.471 -151.401 151.374 -156.286L142.533 -161.618L28.9994 -229.518ZM61.4223 -247.497L159.022 -189.126C167.286 -184.146 175.568 -179.156 183.857 -174.142L192.148 -169.119C202.081 -163.088 213.755 -155.901 225.015 -148.323C236.177 -140.77 246.525 -132.556 255.772 -123.908C265.168 -115.089 274.428 -104.959 283.297 -93.7994C290.702 -84.4825 297.996 -74.6149 305.099 -64.9099L308.78 -59.8718C318.505 -46.5598 326.944 -36.1927 335.338 -27.2456C344.701 -17.2649 354.76 -8.95087 365.258 -2.51288L366.463 -1.7829C377.404 4.7547 389.934 9.93039 403.704 13.5995C415.567 16.7597 428.759 19.2999 445.222 21.5959L451.202 22.4315C463.211 24.1165 475.478 25.9015 487.461 28.0939C501.593 30.681 515.003 34.1208 527.313 38.3173C539.567 42.5167 551.471 47.7057 563.703 54.1837C575.739 60.5793 587.302 67.2984 598.006 73.6055L607.031 78.9417C611.84 81.7858 616.647 84.6311 621.446 87.4784L630.652 92.9408L665.084 113.529L726.836 150.461L726.532 167.799L635.414 113.303L634.409 112.704C630.977 110.651 627.553 108.603 624.117 106.546C616.619 102.098 609.119 97.6477 601.607 93.2048L590.262 86.5078L586.617 84.3686C576.818 78.6353 566.397 72.7011 555.726 67.2671C543.497 61.0871 530.899 56.1179 518.279 52.4948C505.725 48.9096 492.172 46.2423 476.846 44.3427C466.111 43.0111 455.055 41.9337 444.263 40.9095L433.314 39.8715C416.764 38.2851 403.389 36.2003 391.217 33.3087C377.812 30.1208 365.668 25.3776 355.106 19.2012L354.016 18.555C343.315 12.1252 333.163 3.54782 323.846 -6.93991C315.657 -16.1559 307.295 -27.2105 298.281 -40.7353L296.057 -44.0742L293.836 -47.4154C287.381 -57.1263 280.706 -67.1682 273.966 -76.7302C265.133 -89.2568 256.485 -99.8756 247.527 -109.196C243.253 -113.626 238.716 -117.9 233.961 -122.009C228.651 -126.599 223.071 -130.975 217.246 -135.091C215.886 -136.044 214.521 -136.988 213.15 -137.921C203.5 -144.497 193.694 -150.568 184.44 -156.195L183.105 -157.003C178.096 -160.044 173.086 -163.077 168.081 -166.1L151.269 -176.244L46.2184 -239.069L61.4223 -247.497ZM78.6544 -257.049L167.766 -203.756C176.035 -198.777 184.32 -193.789 192.613 -188.778L203.966 -181.904C212.632 -176.636 223.327 -170.054 233.926 -163.183C240.346 -158.993 246.349 -154.792 252.046 -150.514L254.317 -148.801L254.868 -148.372C258.487 -145.585 261.99 -142.762 265.388 -139.879C275.158 -131.58 284.869 -122.186 294.248 -111.958C296.437 -109.567 298.603 -107.154 300.773 -104.694L302.401 -102.839C307.293 -97.2451 312.246 -91.3757 317.599 -84.9315L321.988 -79.6312L322.74 -78.7261C332.512 -66.9701 340.864 -57.7423 348.9 -49.8143C350.463 -48.2702 352.045 -46.7775 353.637 -45.3169L354.834 -44.2271C355.385 -43.729 355.931 -43.2175 356.485 -42.7281L357.397 -41.9461C364.43 -35.8181 371.694 -30.4357 379.105 -25.894L380.428 -25.0932C391.349 -18.5661 403.72 -13.1534 417.2 -9.00381C419.321 -8.34991 421.497 -7.70972 423.739 -7.07703L425.521 -6.57913C434.503 -4.09912 444.533 -1.7554 456.374 0.638824L457.564 0.878418C470.674 3.50739 484.682 6.41989 498.276 9.89465C499.967 10.33 501.65 10.7762 503.323 11.2321C515.034 14.4294 526.282 18.1524 536.826 22.3227C548.549 26.9854 560.242 32.5456 572.572 39.3197C579.014 42.8818 585.476 46.5574 591.844 50.2104L600.702 55.304L606.832 58.8332L727.195 130.82L726.893 148.156L632.894 91.9364L622.469 85.76C617.667 82.9106 612.857 80.0638 608.043 77.2166C605.036 75.4376 602.041 73.6547 599.028 71.878L595.422 69.7574C585.725 64.0671 575.379 58.1146 564.647 52.4112C552.322 45.8851 540.324 40.6533 527.967 36.4213C515.562 32.1915 502.058 28.7273 487.828 26.1223C474.808 23.7397 461.473 21.8403 448.494 20.0276L445.506 19.6106C429.123 17.3267 416.007 14.7996 404.226 11.6606C390.636 8.04126 378.279 2.93768 367.498 -3.50494L367.244 -3.65741C356.561 -10.0763 346.321 -18.4727 336.803 -28.618C328.874 -37.071 320.896 -46.8096 311.81 -59.1388L310.334 -61.1504L306.783 -66.0088C299.649 -75.7595 292.321 -85.6744 284.871 -95.0486C275.933 -106.292 266.605 -116.493 257.146 -125.372C247.821 -134.093 237.39 -142.374 226.142 -149.986C214.952 -157.52 203.693 -164.458 193.192 -170.834C185.092 -175.75 176.995 -180.637 168.911 -185.511L160.023 -190.868L63.4519 -248.622L78.6544 -257.049ZM80.6777 -258.17L95.8816 -266.597L209.719 -198.512L214.495 -195.559L225.108 -189.009C230.976 -185.384 236.932 -181.69 242.798 -177.996C254.815 -170.373 265.309 -163.067 274.881 -155.661C284.9 -147.906 295.022 -139.183 304.966 -129.737L306.646 -128.131C315.864 -119.284 324.652 -110.25 331.671 -102.924L336.075 -98.3249C343.484 -90.6218 352.766 -81.2229 362.519 -72.4557C364.417 -70.7484 366.333 -69.1034 368.258 -67.4873C376.366 -60.6638 384.664 -54.6336 393.019 -49.526L394.523 -48.6127C405.379 -42.1203 417.563 -36.4255 430.738 -31.6861C443.153 -27.2183 455.875 -23.4703 466.204 -20.5753L472.886 -18.7166C487.306 -14.6931 498.505 -11.326 508.859 -7.90723C521.917 -3.58594 534.491 1.26889 546.23 6.52228C557.359 11.5323 568.87 17.4153 581.423 24.5077C587.341 27.8736 593.31 31.3175 599.179 34.7165L612.061 42.1809C613.235 42.8602 614.408 43.5386 615.579 44.2154L727.533 111.172L727.231 128.507L607.851 57.1072L601.442 53.4223L595.326 49.9007C588.147 45.7733 580.831 41.5986 573.537 37.5685C561.111 30.7408 549.344 25.1461 537.563 20.4622C536.047 19.8629 534.517 19.2723 532.973 18.6924C522.164 14.6253 510.683 11.0207 498.773 7.9577C489.679 5.63312 480.414 3.56482 471.352 1.66162C468.33 1.02689 465.33 0.409302 462.368 -0.192017L456.718 -1.33307L454.31 -1.82538C442.795 -4.20142 433.034 -6.53104 424.295 -8.99762C422.066 -9.62671 419.902 -10.2655 417.789 -10.917C404.449 -15.0251 392.224 -20.3723 381.454 -26.8096L381.194 -26.9657C370.521 -33.379 360.129 -41.5435 350.304 -51.2372L349.132 -52.4016C341.299 -60.2287 333.099 -69.3602 323.495 -80.9469L320.878 -84.1105C311.809 -95.0608 303.945 -104.333 295.722 -113.31C286.29 -123.596 276.52 -133.048 266.682 -141.403C265.003 -142.828 263.297 -144.237 261.566 -145.635L259.334 -147.426C257.671 -148.744 255.97 -150.051 254.253 -151.352C248.222 -155.92 241.856 -160.396 235.016 -164.86L233.128 -166.081C221.8 -173.381 210.579 -180.238 201.944 -185.47C190.881 -192.174 179.824 -198.83 168.766 -205.488L80.6777 -258.17ZM113.109 -276.143L218.465 -213.131L225.397 -208.873L232.34 -204.619C238.773 -200.68 245.211 -196.736 251.639 -192.76L253.863 -191.373C265.598 -184.034 275.298 -177.598 284.234 -171.224C294.6 -163.824 305.075 -155.676 315.369 -147.006L317.121 -145.526C327.026 -137.126 336.546 -128.584 344.058 -121.767L347.942 -118.243C355.695 -111.226 365.424 -102.595 375.648 -94.2869C385.982 -85.8915 396.064 -78.724 406.41 -72.4221L407.928 -71.5052L408.151 -71.3714C419.107 -64.8201 430.761 -58.9946 443.777 -53.5619L445.904 -52.6797C457.607 -47.8583 469.381 -43.5485 478.897 -40.1584L485.727 -37.7288C495.508 -34.2336 507.414 -29.8842 519.141 -25.2113C531.757 -20.1815 543.988 -14.7419 555.491 -9.04205L557.358 -8.11115C567.342 -3.10355 577.85 2.60379 590.236 9.74289C594.628 12.2848 599.011 14.8367 603.39 17.3918L609.957 21.2259C614.747 24.0237 619.534 26.8207 624.315 29.599L727.88 91.5389L727.578 108.868L616.597 42.4925L611.454 39.5166L597.425 31.3866C592.446 28.5068 587.413 25.6094 582.413 22.7646C569.806 15.6421 558.24 9.73242 547.055 4.69598C535.254 -0.585052 522.616 -5.46497 509.493 -9.80756L507.319 -10.5203C495.001 -14.5305 482.728 -18.0526 472.843 -20.8079L466.645 -22.5333C456.34 -25.4249 443.686 -29.1568 431.42 -33.5687C418.821 -38.1019 407.138 -43.5155 396.671 -49.6689L395.189 -50.5496C384.575 -56.9268 374.037 -64.7963 363.862 -73.9435C354.111 -82.7162 344.874 -92.0683 337.511 -99.7253L331.909 -105.572C324.661 -113.12 315.698 -122.29 306.35 -131.188C296.353 -140.684 286.178 -149.451 276.111 -157.245C266.52 -164.668 255.976 -172.01 243.872 -179.689C237.025 -184.001 230.061 -188.308 223.257 -192.507L220.352 -194.299C217.158 -196.27 213.965 -198.24 210.765 -200.221L97.9096 -267.72L113.109 -276.143ZM130.332 -285.692L260.603 -207.782C263.29 -206.038 265.985 -204.304 268.684 -202.573L272.733 -199.977C279.542 -195.617 286.583 -191.107 293.438 -186.542C303.309 -179.966 313.391 -172.812 323.435 -165.253L325.443 -163.736C335.008 -156.484 344.44 -148.995 352.25 -142.718L360.09 -136.401C368.077 -129.981 377.892 -122.211 387.949 -114.737C399.157 -106.399 409.955 -99.1385 420.879 -92.6156C431.832 -86.0645 443.322 -79.9903 456.001 -74.0464L458.07 -73.0804C468.419 -68.2705 478.797 -63.7731 487.528 -60.0654L497.476 -55.8604C509.932 -50.5794 519.846 -46.2302 529.122 -41.9834C541.466 -36.3094 553.414 -30.3867 564.634 -24.3778C570.083 -21.458 575.557 -18.4315 580.935 -15.4352L592.747 -8.84558C594.902 -7.64685 597.054 -6.45383 599.203 -5.27142L728.212 71.887L727.909 89.2172L625.342 27.8731L618.29 23.7664L611.241 19.6515C606.803 17.0597 602.364 14.4667 597.919 11.8811L591.242 8.00833L588.933 6.68158C576.731 -0.306335 566.335 -5.8996 556.387 -10.835C544.878 -16.5402 532.598 -22.002 519.887 -27.0706L517.784 -27.9045C506.569 -32.3299 495.453 -36.3845 486.267 -39.6644L476.938 -42.9861C467.361 -46.4214 455.863 -50.6852 444.553 -55.4081C432.339 -60.5061 420.882 -66.1927 410.479 -72.3209L408.741 -73.3541C398.45 -79.5375 388.439 -86.5677 378.196 -94.8055L376.915 -95.8416C368.835 -102.406 360.385 -109.702 349.856 -119.215L342.525 -125.859C334.989 -132.665 325.89 -140.765 316.663 -148.536C306.293 -157.267 295.777 -165.448 285.401 -172.854L283.712 -174.053C274.653 -180.454 264.74 -186.976 252.698 -194.461C248.409 -197.114 244.117 -199.752 239.825 -202.383L233.391 -206.326C228.761 -209.161 224.135 -211.994 219.508 -214.842L115.133 -277.268L130.332 -285.692ZM725.843 207.075L606.672 135.801L598.643 131.046C592.903 127.644 587.161 124.242 581.412 120.844L572.783 115.751L570.562 114.448C560.825 108.745 549.653 102.395 537.927 96.9698C525.683 91.3637 512.59 87.1868 499.013 84.5531C486.302 82.087 472.16 80.4177 455.777 79.4499C450.641 79.1464 445.425 78.8735 440.273 78.6133L427.57 77.9788C422.067 77.7008 416.496 77.407 411.016 77.0758C394.733 76.0933 380.764 74.2868 368.311 71.5559C354.385 68.5013 341.869 63.69 331.11 57.258L330.894 57.1282C320.217 50.7124 310.144 42.0308 300.959 31.3222C292.658 21.6486 284.502 10.2614 276.022 -3.48837C272.437 -9.29401 268.844 -15.2457 265.336 -21.0742L260.084 -29.8007C257.728 -33.7095 255.34 -37.6531 252.965 -41.5263C244.453 -55.4104 236.402 -67.0074 228.352 -76.9801C219.701 -87.6988 209.99 -97.2248 199.486 -105.298C188.862 -113.417 177.575 -120.508 166.96 -126.963C159.498 -131.494 152.038 -136 144.589 -140.494L133.793 -147.003L11.7768 -219.977L26.968 -228.397L141.494 -159.905L142.24 -159.455C153.021 -152.953 163.833 -146.434 174.647 -139.862L178.008 -137.809C187.589 -131.936 197.609 -125.568 207.165 -118.565C217.868 -110.671 227.696 -101.626 236.377 -91.6831C244.75 -82.094 252.993 -70.9763 261.578 -57.6962C265.37 -51.8304 269.163 -45.7971 272.886 -39.8346L276.583 -33.9045C279.4 -29.3853 282.217 -24.8638 285.052 -20.3674L286.465 -18.1402C294.686 -5.27332 302.502 5.4104 310.311 14.4628C319.41 25.0155 329.36 33.6377 339.903 40.1085L340.981 40.7613C351.934 47.3066 364.641 52.213 378.748 55.3435C389.581 57.7474 401.673 59.4994 415.56 60.6725C417.544 60.8402 419.564 60.996 421.623 61.14L430.309 61.7267L444.116 62.6343C451.373 63.1156 458.729 63.6269 465.935 64.2252C481.803 65.5438 495.609 67.6117 508.139 70.5478C521.083 73.585 533.803 78.0909 545.944 83.9407C556.811 89.2032 567.163 95.0292 579.211 102.098L584.103 104.979L592.367 109.861L601.305 115.156C605.74 117.785 610.11 120.38 614.36 122.906L726.145 189.763L725.843 207.075ZM725.718 216.039L716.337 221.239L597.926 150.421L593.218 147.626C586.75 143.787 580.277 139.945 573.795 136.108L564.064 130.358C553.791 124.304 541.767 117.377 529.067 111.77C517.011 106.485 503.741 102.6 489.625 100.221C476.951 98.0834 462.677 96.6408 445.99 95.8086C442.864 95.6538 439.734 95.5066 436.603 95.3619L424.269 94.7933C416.587 94.4327 408.8 94.0411 401.171 93.553C385.092 92.524 371.175 90.634 358.624 87.778C345.157 84.7075 332.973 80.0172 322.392 73.8315L321.291 73.1787C310.607 66.7588 300.503 58.133 291.257 47.54C282.831 37.8876 274.623 26.5861 266.163 12.9908C260.658 4.14404 255.184 -5.03543 249.89 -13.9144C247.655 -17.6641 245.419 -21.4106 243.178 -25.1434C234.641 -39.3501 226.726 -51.1631 218.978 -61.2572C210.319 -72.5314 200.785 -82.3559 190.639 -90.4615C180.228 -98.7163 168.908 -105.86 158.225 -112.35C150.46 -117.061 142.697 -121.747 134.946 -126.419L125.053 -132.38L5.46271 -203.902L5.68254 -216.597L9.74351 -218.849L132.751 -145.283L133.65 -144.741C144.38 -138.27 155.141 -131.781 165.907 -125.248C176.503 -118.802 187.755 -111.731 198.256 -103.705C208.632 -95.7297 218.231 -86.3128 226.782 -75.7163C234.772 -65.8168 242.776 -54.2903 251.248 -40.4757C253.617 -36.6108 256 -32.6745 258.352 -28.7725L265.364 -17.1234C268.314 -12.2304 271.312 -7.28162 274.306 -2.43182C282.862 11.4363 291.079 22.9045 299.427 32.6312C308.516 43.2203 318.466 51.8642 329.02 58.3428L330.071 58.9797C341.025 65.5264 353.742 70.4165 367.869 73.5141C380.416 76.2676 394.488 78.0878 410.883 79.0795C417.454 79.4754 424.153 79.8182 430.708 80.1457L440.123 80.6151C445.282 80.8752 450.507 81.1488 455.648 81.4521C471.946 82.4161 486.003 84.0746 498.62 86.5227C512.062 89.1316 525.003 93.2604 537.078 98.7937C548.426 104.043 559.148 110.061 571.757 117.481C583.039 124.13 594.29 130.806 605.521 137.471L725.836 209.428L725.718 216.039ZM699.085 230.784L589.157 165.041C577.895 158.344 566.616 151.642 555.304 144.961L552.791 143.48C542.679 137.542 531.872 131.457 520.22 126.501C508.261 121.452 494.886 117.741 480.466 115.474C467.769 113.477 453.877 112.128 436.747 111.226L422.08 110.463C412.131 109.938 402.019 109.364 392.164 108.596C376.337 107.365 362.542 105.276 349.988 102.209C336.303 98.8679 323.878 93.8936 313.051 87.4259L312.814 87.2832C302.085 80.8365 291.918 72.3176 282.592 61.961C273.987 52.4014 265.66 41.3024 257.137 28.028C250.975 18.4276 244.892 8.41733 238.978 -1.36725L233.936 -9.71295L232.649 -11.8334C224.757 -24.7761 217.768 -35.2781 210.838 -44.6089L209.826 -45.9671C201.125 -57.5589 191.697 -67.5568 181.801 -75.6834C172.169 -83.5719 161.91 -90.2073 149.471 -97.7448C138.395 -104.451 127.329 -111.115 116.289 -117.757L5.10368 -184.254L5.40603 -201.592L124.008 -130.662L141.032 -120.397C146.408 -117.153 151.789 -113.901 157.171 -110.638L159.955 -108.94C169.745 -102.943 179.947 -96.3745 189.377 -88.8921C199.399 -80.8916 208.819 -71.1823 217.374 -60.0346L218.66 -58.346C225.958 -48.6857 233.428 -37.4623 241.447 -24.11C242.93 -21.6419 244.409 -19.1671 245.887 -16.6894L248.104 -12.9714C253.42 -4.05627 258.916 5.16217 264.448 14.051C272.973 27.741 281.243 39.1266 289.733 48.8581C298.852 59.314 308.817 67.8876 319.365 74.3616L320.472 75.0328C331.433 81.5836 344.113 86.5287 358.162 89.731C370.798 92.6111 384.819 94.5154 401.026 95.5531C408.657 96.0413 416.44 96.4331 424.117 96.7936L431.749 97.1461C436.461 97.3631 441.172 97.5782 445.874 97.8118L448.618 97.9545C464.042 98.7953 477.367 100.186 489.276 102.196C503.232 104.548 516.344 108.387 528.245 113.606C539.981 118.785 551.157 125.118 560.893 130.828L563.031 132.086C569.317 135.793 575.592 139.509 581.858 143.226L596.876 152.137L714.287 222.358L699.085 230.784ZM681.874 240.347L546.632 159.462L543.203 157.479C533.549 151.909 522.826 145.899 511.45 141.171C499.594 136.245 486.196 132.577 471.628 130.27L469.873 129.998C458.112 128.204 445.13 126.865 429.289 125.811L419.724 125.184C407.828 124.396 395.713 123.538 383.96 122.374C368.433 120.835 354.802 118.472 342.286 115.15C328.801 111.57 316.448 106.458 305.572 99.9589L305.314 99.8039C294.543 93.3319 284.298 84.9477 274.858 74.8811C266.037 65.4721 257.545 54.6447 248.897 41.779C242.086 31.6423 235.491 21.1819 229.082 10.9071L225.26 4.76855C216.226 -9.74405 208.512 -21.1651 200.982 -31.1729C192.204 -42.8393 182.803 -52.8791 173.041 -61.0105C162.525 -69.7705 150.856 -77.0271 140.743 -83.1421C129.667 -89.8396 118.6 -96.4937 107.551 -103.137L4.76558 -164.609L5.06775 -181.94L115.266 -116.035C126.302 -109.395 137.366 -102.731 148.439 -96.0266L150.806 -94.5872C162.116 -87.6789 171.611 -81.44 180.537 -74.1308C190.32 -66.0897 199.637 -56.2084 208.232 -44.7585L208.771 -44.0356L209.312 -43.308C216.562 -33.5305 223.874 -22.4774 232.219 -8.68439L235.302 -3.58563C237.324 -0.236877 239.374 3.14859 241.435 6.54163C244.369 11.3719 247.333 16.2201 250.331 21.0162C251.073 22.2028 251.822 23.3688 252.567 24.548L254.489 27.5943L255.458 29.1142C264.034 42.4767 272.425 53.6601 281.112 63.3067C290.302 73.513 300.303 81.9624 310.857 88.4393L312.031 89.1509C323.026 95.72 335.639 100.77 349.517 104.16C362.182 107.253 376.082 109.359 392.014 110.598C401.882 111.366 411.998 111.941 421.949 112.466L436.648 113.232C453.668 114.123 467.494 115.466 480.16 117.457C494.418 119.7 507.637 123.365 519.445 128.35C531.939 133.664 543.511 140.324 554.293 146.69C565.603 153.371 576.882 160.072 588.14 166.768L697.07 231.915L681.874 240.347ZM664.633 249.884L537.888 174.082L534.463 172.089C524.818 166.491 514.106 160.45 502.747 155.711C490.959 150.791 477.611 147.046 463.074 144.581L461.442 144.308C450.221 142.459 437.656 140.948 422.222 139.588L419.942 139.39C414.813 138.951 409.728 138.509 404.687 138.048L402.005 137.801C399.768 137.592 397.543 137.377 395.324 137.157C393.393 136.965 391.468 136.768 389.549 136.565C388.151 136.418 386.755 136.267 385.364 136.113C383.733 135.931 382.105 135.745 380.483 135.553L376.396 135.061C361.158 133.153 347.714 130.478 335.295 126.883C322.009 123.037 309.737 117.778 298.818 111.255C287.899 104.719 277.469 96.4295 267.83 86.5919C258.812 77.3887 250.134 66.8712 241.301 54.4388C240.091 52.7356 238.888 51.0199 237.69 49.2969C231.784 40.8007 225.975 32.0248 220.401 23.4973L215.737 16.3495C209.493 6.81342 203.922 -1.30673 198.665 -8.52167L198.103 -9.29126C196.171 -11.9315 194.281 -14.4496 192.414 -16.8722C183.494 -28.4478 174.047 -38.4069 164.338 -46.4687C154.361 -54.7522 143.819 -61.4037 132.057 -68.6313L4.4225 -144.964L4.72639 -162.293L106.534 -101.406C117.567 -94.7715 128.632 -88.1198 139.708 -81.4214L141.808 -80.148C151.35 -74.3439 162.067 -67.539 171.76 -59.4655C181.396 -51.4394 190.689 -41.5128 199.384 -29.961L200.427 -28.567C207.569 -18.974 214.954 -7.98984 223.56 5.83435L227.401 12.0006C233.838 22.3204 240.454 32.8149 247.238 42.9032C255.948 55.8633 264.505 66.773 273.398 76.2567C282.674 86.1516 292.724 94.4427 303.29 100.924L304.546 101.685C315.579 108.279 328.104 113.462 341.772 117.091C354.39 120.443 368.124 122.824 383.761 124.372C396.764 125.661 410.192 126.574 423.282 127.432L427.965 127.737L431.499 127.975C446.994 129.054 459.723 130.424 471.314 132.255C485.711 134.531 498.956 138.155 510.681 143.027C523.301 148.271 535.166 155.143 545.621 161.197L679.832 241.466L664.633 249.884ZM647.426 259.443L529.147 188.704L524.561 186.025C515.227 180.594 504.936 174.809 494.12 170.166C482.281 165.085 469.417 161.262 454.792 158.477L453.242 158.186C441.831 156.065 429.398 154.286 413.331 152.474L407.617 151.832C395.636 150.476 382.261 148.877 369.369 146.886C354.422 144.578 341.172 141.577 328.86 137.71C315.786 133.607 303.593 128.204 292.622 121.647L292.348 121.482L290.996 120.643C290.161 120.13 289.327 119.619 288.497 119.088C280.759 114.114 273.253 108.337 266.109 101.851C265.748 101.523 265.383 101.207 265.023 100.876L264.779 100.644C263.63 99.5789 262.488 98.4986 261.359 97.3964C252.146 88.4122 243.271 78.2195 234.226 66.2327L232.718 64.2259C225.447 54.5041 218.364 44.4235 210.182 32.5611L208.087 29.5242C198.83 16.1465 191.389 6.05151 184.107 -3.01419C174.866 -14.5156 165.572 -24.0079 155.693 -32.0331C145.588 -40.2414 134.613 -47.1109 123.313 -54.01L4.08543 -125.315L4.38846 -142.651L131.025 -66.9135L134.877 -64.5379C145.033 -58.2438 154.287 -52.2116 163.066 -44.922C172.663 -36.9519 182.005 -27.101 190.835 -15.6427C193.342 -12.389 195.891 -8.96313 198.527 -5.30234L199.409 -4.0733C204.141 2.54675 209.166 9.94266 214.733 18.4695L218.296 23.9359C224.129 32.8687 230.242 42.1157 236.531 51.1354C237.577 52.6353 238.625 54.1259 239.675 55.6042C248.566 68.1213 257.31 78.7171 266.406 87.9985C275.782 97.5664 285.893 105.695 296.481 112.181L297.798 112.979C308.863 119.591 321.292 124.917 334.743 128.811C347.262 132.436 360.808 135.131 376.153 137.052L377.801 137.244C380.245 137.542 382.701 137.828 385.172 138.103C386.535 138.254 387.904 138.402 389.273 138.547C391.23 138.754 393.194 138.955 395.165 139.15L398.436 139.47L403.16 139.917L404.604 140.049C408.371 140.393 412.151 140.73 415.959 141.062L422.047 141.588C438.169 143.007 451.151 144.595 462.743 146.561C477.132 149.001 490.332 152.702 501.982 157.563C514.611 162.833 526.447 169.735 536.88 175.82L662.621 251.021L647.426 259.443ZM612.965 278.53L511.673 217.951L508.204 215.901C505.911 214.549 503.656 213.224 501.423 211.923L498.732 210.357L497.156 209.448L494.485 207.916C488.748 204.643 483.081 201.518 477.261 198.503L477.195 198.471C464.644 193.054 451.728 188.633 438.804 185.331L436.57 184.768C426.329 182.217 415.12 179.867 400.904 177.291L391.449 175.596C389.911 175.319 388.397 175.045 386.902 174.772L383.169 174.085L380.654 173.616L377.063 172.939L375.267 172.595L371.992 171.96L370.041 171.575L366.744 170.917L364.956 170.551L361.431 169.823C360.482 169.624 359.537 169.419 358.59 169.215C357.855 169.058 357.117 168.903 356.384 168.742C341.997 165.598 329.131 161.945 317.049 157.579C313.868 156.43 310.73 155.213 307.64 153.933C298.468 150.13 289.714 145.751 281.507 140.866L281.228 140.704C271.308 134.724 261.618 127.724 252.441 119.81L251.297 118.815C250.692 118.285 250.081 117.763 249.479 117.225C239.926 108.674 230.661 99.1224 221.154 88.0225C212.682 78.1367 204.299 67.6845 196.433 57.7385L193.403 53.9052C183.571 41.5034 175.702 32.1457 168.048 23.745C159.137 13.9702 149.29 4.72067 138.727 -3.78961C128.87 -10.6533 118.593 -17.0273 109.377 -22.6165L105.644 -24.8737L3.39601 -86.0225L3.69836 -103.361L113.54 -37.67L116.896 -35.6289C126.461 -29.7962 136.46 -23.5315 146.103 -16.5849C156.299 -7.91437 165.846 1.63214 174.483 11.7895L175.962 13.5398C182.883 21.7786 190.112 31.051 199.024 43.1237L200.309 44.8677C208.39 55.8538 217.093 67.5485 225.991 78.6182C235.315 90.2207 244.448 100.158 253.916 108.999C263.816 118.246 274.413 126.285 285.419 132.898L285.779 133.113C296.909 139.763 309.155 145.367 322.181 149.768C334.47 153.922 347.616 157.274 362.371 160.015C375.094 162.377 387.898 164.332 403.053 166.503L404.576 166.721C421.684 169.166 434.551 171.405 446.297 173.978C459.437 176.857 472.458 180.87 485.001 185.907C496.573 191.686 507.871 198.262 519.383 205.05L628.16 270.108L612.965 278.53ZM593.703 289.214L578.507 297.635L494.181 247.204C483.894 241.048 473.785 235.031 463.507 229.227L460.032 227.276C448.27 221.457 435.914 216.136 423.265 211.446C411.562 207.692 399.209 204.129 385.557 200.568L377.297 198.427C366.335 195.58 355.14 192.628 344.095 189.454C330.184 185.455 317.685 181.177 305.883 176.378C293.944 171.52 282.503 165.885 271.85 159.615L269.971 158.498C259.082 151.956 248.41 144.381 238.245 135.979C228.434 127.873 218.792 118.935 208.764 108.654L206.885 106.723C199.082 98.6764 191.546 90.5789 182.863 81.1841L180.757 78.9038C170.764 68.0851 161.5 58.5476 152.403 49.7177C142.433 40.848 132.054 32.5167 121.513 24.9264C111.219 18.2563 100.596 11.8238 90.4924 5.77148L2.70266 -46.7316L3.00517 -64.061L98.5844 -6.89685C109.874 -0.122375 119.505 5.80719 128.985 12.1461C139.219 19.9135 149.314 28.5741 158.956 37.8543L160.731 39.7548C168.449 48.0489 176.49 57.1164 185.221 67.3686L191.103 74.2781C199.037 83.5701 206.125 91.7124 213.451 99.7353C223.287 110.5 232.798 119.802 242.53 128.169C247.629 132.553 252.875 136.696 258.231 140.576C259.109 141.211 259.993 141.829 260.878 142.452L262.182 143.374C263.116 144.022 264.056 144.651 264.996 145.281L266.275 146.146L267.205 146.749L268.136 147.349C268.946 147.873 269.755 148.399 270.568 148.911L271.004 149.179C272.118 149.877 273.233 150.57 274.355 151.244L274.808 151.515C285.98 158.185 298.064 164.033 310.723 168.896C322.759 173.523 335.518 177.51 349.726 181.084C362.519 184.304 375.763 187.224 387.476 189.752L390.371 190.375C405.225 193.569 418.407 196.729 430.62 200.019C443.531 204.242 456.034 209.155 467.781 214.622C478.868 220.611 489.676 226.995 499.862 233.088L593.703 289.214ZM559.253 308.3L544.054 316.726L466.599 270.406C458.383 265.5 450.587 260.866 442.743 256.263C431.165 249.89 419.231 243.887 407.241 238.408C395.449 233.497 383.183 228.752 369.73 223.898L356.71 219.356C348.381 216.444 339.932 213.469 331.633 210.455C318.062 205.522 305.927 200.621 294.535 195.472C282.327 189.953 270.534 183.806 259.483 177.204C248.4 170.561 237.441 163.137 226.833 155.029C216.9 147.441 206.879 139.113 196.197 129.57C188.147 122.379 180.057 114.974 172.172 107.739L166.522 102.552C156.029 93.1151 146.147 84.612 136.284 76.5342C125.938 68.6262 115.15 60.9925 104.193 53.8337L101.198 52.0015C90.7112 45.5988 80.2077 39.3175 70.846 33.7222L2.02113 -7.43707L2.32399 -24.7768L78.6261 20.8555C86.5369 25.5854 94.3135 30.2534 101.993 34.9668L104.917 36.7713L107.832 38.5815C109.143 39.396 110.461 40.2065 111.766 41.0272C122.38 48.2935 132.926 56.2251 143.082 64.5754C152.657 73.0822 162.484 82.3279 172.287 92.0547L181.493 101.192C187.967 107.609 194.571 114.115 201.171 120.432L202.198 121.409L203.223 122.377C211.865 130.567 220.18 137.89 228.491 144.625L229.738 145.631C230.283 146.068 230.827 146.513 231.372 146.946C241.412 154.928 251.85 162.246 262.503 168.675L264.03 169.59C275.152 176.235 287.086 182.309 299.498 187.643C311.136 192.643 323.51 197.253 337.325 201.737C340.069 202.628 342.831 203.51 345.601 204.386C347.08 204.853 348.564 205.314 350.046 205.776C351.282 206.163 352.518 206.553 353.755 206.937C357.162 207.993 360.566 209.04 363.947 210.076L376.26 213.839C389.577 217.917 402.478 222.257 414.568 226.729C426.799 231.802 438.88 237.454 450.443 243.51C460.439 249.245 470.225 255.059 480.84 261.405L559.253 308.3ZM2.36678 -27.0808L2.66981 -44.4111L87.301 6.20245C97.9273 12.5582 109.24 19.3674 120.378 26.581C130.818 34.1011 141.144 42.3893 151.035 51.1869C160.068 59.9584 169.307 69.4694 179.281 80.265L183.846 85.2048C191.222 93.1749 199.25 101.784 207.325 110.055C217.408 120.39 227.102 129.376 236.962 137.526C247.203 145.989 257.951 153.619 268.919 160.209L269.431 160.515C280.561 167.167 292.57 173.128 305.122 178.237C316.989 183.065 329.554 187.366 343.535 191.38C356.932 195.227 370.959 198.86 383.333 202.065L386.501 202.891C399.601 206.334 411.452 209.765 422.604 213.341C435.15 217.993 447.441 223.286 459.093 229.05C470.533 235.433 481.728 242.092 493.142 248.923L576.48 298.763L561.288 307.182L477.887 257.309C468.934 251.969 460.871 247.2 452.568 242.423L451.4 241.754C439.792 235.669 427.656 229.991 415.295 224.865C403.133 220.367 390.196 216.014 376.842 211.924L364.155 208.047C360.932 207.06 357.688 206.063 354.441 205.055C348.922 203.343 343.395 201.603 337.939 199.832C324.182 195.367 311.866 190.778 300.285 185.802C287.953 180.505 276.101 174.472 265.052 167.871C254.033 161.296 243.094 153.704 232.619 145.382L231.734 144.673L230.849 143.958C222.401 137.16 213.956 129.765 205.173 121.47L203.432 119.823C203.141 119.547 202.849 119.269 202.557 118.989C195.945 112.656 189.322 106.133 182.83 99.6979L173.7 90.637C163.865 80.8802 154.012 71.6105 144.385 63.0576C134.152 54.6434 123.559 46.6768 112.867 39.3578L111.52 38.5204C102.211 32.6912 92.7938 27.005 83.1968 21.2589L71.3618 14.1796L2.36678 -27.0808ZM3.35837 -83.7154L104.612 -23.1609L108.335 -20.9094C117.524 -15.3366 127.765 -8.98523 137.524 -2.19183C147.95 6.20996 157.721 15.3886 166.567 25.0902L167.581 26.2068C174.691 34.0672 182.093 42.8849 191.203 54.3541L196.558 61.1208C203.941 70.4321 211.745 80.1182 219.631 89.3227C229.202 100.491 238.528 110.106 248.141 118.713C248.663 119.181 249.195 119.634 249.721 120.096C250.468 120.751 251.21 121.412 251.963 122.056L252.25 122.295C260.674 129.469 269.503 135.894 278.579 141.441L280.02 142.313L280.484 142.585C288.762 147.515 297.603 151.938 306.873 155.78C309.993 157.074 313.161 158.302 316.372 159.462C328.51 163.854 341.459 167.528 355.96 170.698L357.059 170.935L361.018 171.779L362.723 172.132C363.932 172.383 365.143 172.633 366.362 172.88L369.61 173.529L372.288 174.055L375.467 174.67L378.718 175.287L381.716 175.85L386.695 176.767L391.764 177.686L400.548 179.261C415.763 182.017 427.513 184.512 438.313 187.271C451.093 190.535 463.897 194.916 476.372 200.296L478.276 201.296C479.07 201.714 479.867 202.127 480.657 202.549L481.763 203.148C482.832 203.721 483.9 204.295 484.963 204.877L486.053 205.481C487.109 206.063 488.165 206.645 489.218 207.235L490.828 208.145C491.705 208.638 492.581 209.131 493.456 209.631L496.5 211.379L498.579 212.581C502.592 214.91 506.604 217.279 510.639 219.672L610.937 279.656L595.743 288.079L502.934 232.574C492.068 226.071 480.474 219.191 468.66 212.814C456.814 207.302 444.227 202.355 431.202 198.094C418.905 194.782 405.69 191.614 390.802 188.412L385.877 187.35C374.304 184.845 362.19 182.152 350.224 179.138C336.116 175.586 323.432 171.624 311.449 167.02C298.876 162.191 286.895 156.394 275.842 149.789C264.832 143.234 254.038 135.41 243.842 126.644C234.148 118.308 224.693 109.062 214.936 98.3792C206.62 89.2757 198.59 79.9626 190.994 71.0478L185.741 64.8789C176.691 54.2892 168.387 44.9743 160.387 36.4415C150.622 27.0463 140.466 18.3331 130.155 10.509C119.852 3.6221 109.474 -2.72836 97.0845 -10.1422L3.05585 -66.3743L3.35837 -83.7154ZM122.284 -52.2907C133.53 -45.424 144.451 -38.5901 154.437 -30.4722C164.21 -22.5279 173.408 -13.1341 182.553 -1.75363L183.52 -0.544464C190.461 8.16818 197.623 17.9196 206.446 30.6695L211.053 37.3399C218.765 48.4798 225.572 58.0888 232.634 67.4459C241.741 79.5119 250.682 89.7794 259.966 98.8354C261.945 100.768 263.964 102.626 266.001 104.443C266.493 104.881 266.98 105.332 267.476 105.764L268.4 106.548C274.506 111.805 280.849 116.558 287.374 120.744C288.385 121.395 289.406 122.019 290.427 122.644L291.599 123.371C302.707 130.009 315.043 135.477 328.266 139.625C340.673 143.522 354.02 146.546 369.068 148.869C380.87 150.693 393.066 152.187 404.231 153.467L414.2 154.592C430.442 156.442 442.923 158.26 454.423 160.45C468.893 163.202 481.622 166.983 493.335 172.011C505.876 177.394 517.704 184.326 528.133 190.439L645.38 260.561L630.185 268.983L520.406 203.327L516.821 201.218C506.156 194.957 496.261 189.289 485.782 184.059C473.124 178.974 459.982 174.923 446.724 172.02L445.205 171.69C434.527 169.395 422.898 167.361 408.082 165.2L399.262 163.932C387.844 162.28 375.16 160.353 362.735 158.044C348.074 155.319 335.016 151.991 322.817 147.868C309.928 143.511 297.811 137.969 286.804 131.391L286.552 131.24C285.959 130.882 285.37 130.507 284.78 130.142L283.347 129.261C283.109 129.113 282.871 128.964 282.634 128.812C276.616 124.971 270.734 120.702 265.033 116.045L262.789 114.199C262.414 113.884 262.047 113.555 261.673 113.235C259.515 111.387 257.378 109.494 255.279 107.533C245.902 98.779 236.831 88.9097 227.549 77.3602C219.3 67.0964 211.168 56.2287 203.545 45.885L201.919 43.6769C191.736 29.83 183.744 19.5949 176.005 10.4888C167.314 0.260406 157.689 -9.36212 147.335 -18.1629C136.434 -26.0193 125.174 -32.9545 114.57 -39.3888L3.73635 -105.673L4.04058 -123.007L122.284 -52.2907ZM3.70334 -217.786L3.48384 -205.073L3.4667 -205.083L3.0834 -183.132L3.08769 -183.129L2.4036 -143.842L2.40788 -143.84L2.10537 -126.499L2.10108 -126.501L1.71693 -104.551L1.71864 -104.55L1.37488 -84.9014L1.37831 -84.8993L1.07527 -67.5457L1.0667 -67.5509L0.683747 -45.5986L0.691461 -45.594L0.388436 -28.2637L0.385008 -28.2657L0 -6.31589L80.9464 42.0973C88.1294 46.4052 95.6646 50.9502 103.123 55.523C114.014 62.6399 124.763 70.244 135.044 78.1026C144.855 86.1387 154.716 94.6218 165.176 104.031L167.873 106.508C176.686 114.597 185.798 122.962 194.865 131.062C205.585 140.639 215.644 148.998 225.619 156.62C235.518 164.183 245.745 171.189 256.054 177.47L258.456 178.921C269.573 185.562 281.434 191.744 293.711 197.293C305.15 202.464 317.331 207.385 330.95 212.335C339.259 215.352 347.713 218.33 356.047 221.243L369.061 225.784C382.473 230.623 394.711 235.356 406.441 240.241C418.354 245.686 430.243 251.666 441.756 258.001L444.741 259.756C452.206 264.151 459.693 268.609 467.601 273.333L544.016 319.034L561.239 309.487L561.247 309.492L580.495 298.824L580.492 298.823L597.71 289.279L597.706 289.277L614.953 279.718L614.95 279.717L632.168 270.173L632.166 270.172L647.364 261.747L647.379 261.757L666.628 251.087L666.611 251.076L681.817 242.652L681.828 242.659L701.076 231.98L701.065 231.973L716.284 223.538L716.299 223.547L727.697 217.228L727.856 208.279L727.824 208.259L728.125 190.933L728.146 190.945L728.53 168.994L728.512 168.983L728.816 151.636L728.833 151.646L729.216 129.694L729.211 129.691L729.513 112.357L729.517 112.359L729.899 90.4073L729.888 90.4006L730.232 70.7653L600.198 -7.00552C597.316 -8.5921 594.439 -10.1909 591.565 -11.7938L581.905 -17.1847C577.418 -19.6846 572.864 -22.206 568.311 -24.6705L565.578 -26.1423C554.323 -32.1692 542.337 -38.111 529.956 -43.8026L526.346 -45.4456C517.587 -49.4092 508.079 -53.55 496.321 -58.5216L489.943 -61.214C480.337 -65.2814 468.5 -70.3916 456.849 -75.8591C444.232 -81.7723 432.802 -87.8154 421.906 -94.332C411.472 -100.546 401.227 -107.418 390.594 -115.265L389.141 -116.341C379.151 -123.767 369.394 -131.489 361.439 -137.882L353.501 -144.279C345.681 -150.565 336.235 -158.065 326.651 -165.329C315.911 -173.473 305.109 -181.17 294.547 -188.206C289.394 -191.638 284.141 -195.035 278.961 -198.361L273.812 -201.661C269.764 -204.254 265.72 -206.845 261.662 -209.478L130.37 -288L95.9215 -268.904L95.9198 -268.905L42.2116 -239.134L42.2176 -239.131L27.0105 -230.702L27.0053 -230.705L3.70334 -217.786Z" fill="url(#paint0_linear_302_851)"/>
<defs>
<linearGradient id="paint0_linear_302_851" x1="-36.5" y1="44.5" x2="521.416" y2="-315.633" gradientUnits="userSpaceOnUse">
<stop stop-color="white"/>
<stop offset="0.33125" stop-color="#DAEEFF"/>
<stop offset="0.685417" stop-color="#FFC7E6"/>
<stop offset="1" stop-color="white"/>
</linearGradient>
</defs>
</svg>
